# xmcd
#
# Track frame offsets: 
#        150
#        17581
#        35438
#        48493
#        63076
#        77117
#        90825
#        105435
#        130432
#        148239
#        160776
#        176475
#        196567
#        210405
#
# Disc length: 3079 seconds
#
# Revision: 0
# Processed by: cddbd v1.5.2PL0 Copyright (c) Steve Scherf et al.
# Submitted via: ExactAudioCopy v1.0b4
#
DISCID=aa0c050e
DTITLE=Henry Gary and Bob Corritore Sessions - Blues Won't Let take My R
DTITLE=est
DYEAR=2015
DGENRE=Blues
TTITLE0=Let's Get High
TTITLE1=Blues Won't Let Me Take My Rest
TTITLE2=I'm In Love Again
TTITLE3=Ramblin' On My Mind
TTITLE4=Worried Life Blues
TTITLE5=They Raided The Joint
TTITLE6=Ride With Your Daddy Tonight
TTITLE7=Trouble Blues
TTITLE8=I'm Gonna Miss You
TTITLE9=That Ain't Right
TTITLE10=Can't Afford To Do It
TTITLE11=Boogie Woogie Ball
TTITLE12=Honey Don't Let Me Go
TTITLE13=She Won't See Me No More
EXTD=
EXTT0=
EXTT1=
EXTT2=
EXTT3=
EXTT4=
EXTT5=
EXTT6=
EXTT7=
EXTT8=
EXTT9=
EXTT10=
EXTT11=
EXTT12=
EXTT13=
PLAYORDER=
